<svg width="26" height="26" viewBox="0 0 26 26" fill="none" xmlns="http://www.w3.org/2000/svg">
<g clip-path="url(#clip0_551_704)">
<path d="M4.33356 6.9484L0.820312 3.43624L2.35323 1.90332L5.8654 5.41657H22.3776C22.5464 5.41656 22.7129 5.45602 22.8638 5.5318C23.0147 5.60758 23.1458 5.71759 23.2466 5.85304C23.3475 5.98849 23.4152 6.14564 23.4445 6.31193C23.4738 6.47823 23.4639 6.64907 23.4154 6.81082L20.8154 15.4775C20.7485 15.7007 20.6114 15.8965 20.4244 16.0356C20.2375 16.1748 20.0106 16.2499 19.7776 16.2499H6.50023V18.4166H18.4169V20.5832H5.4169C5.12958 20.5832 4.85403 20.4691 4.65086 20.2659C4.4477 20.0628 4.33356 19.7872 4.33356 19.4999V6.9484ZM6.50023 7.58324V14.0832H18.9716L20.9216 7.58324H6.50023ZM5.95856 24.9166C5.52759 24.9166 5.11426 24.7454 4.80951 24.4406C4.50477 24.1359 4.33356 23.7225 4.33356 23.2916C4.33356 22.8606 4.50477 22.4473 4.80951 22.1425C5.11426 21.8378 5.52759 21.6666 5.95856 21.6666C6.38954 21.6666 6.80286 21.8378 7.10761 22.1425C7.41236 22.4473 7.58356 22.8606 7.58356 23.2916C7.58356 23.7225 7.41236 24.1359 7.10761 24.4406C6.80286 24.7454 6.38954 24.9166 5.95856 24.9166ZM18.9586 24.9166C18.5276 24.9166 18.1143 24.7454 17.8095 24.4406C17.5048 24.1359 17.3336 23.7225 17.3336 23.2916C17.3336 22.8606 17.5048 22.4473 17.8095 22.1425C18.1143 21.8378 18.5276 21.6666 18.9586 21.6666C19.3895 21.6666 19.8029 21.8378 20.1076 22.1425C20.4124 22.4473 20.5836 22.8606 20.5836 23.2916C20.5836 23.7225 20.4124 24.1359 20.1076 24.4406C19.8029 24.7454 19.3895 24.9166 18.9586 24.9166Z" fill="#EE7623"/>
</g>
<defs>
<clipPath id="clip0_551_704">
<rect width="26" height="26" fill="white"/>
</clipPath>
</defs>
</svg>
