<svg width="26" height="26" viewBox="0 0 26 26" fill="none" xmlns="http://www.w3.org/2000/svg">
<g clip-path="url(#clip0_551_1082)">
<path d="M20.5833 20.5833V10.6155L13 4.63336L5.41667 10.6155V20.5833H20.5833ZM22.75 21.6666C22.75 21.9539 22.6359 22.2295 22.4327 22.4326C22.2295 22.6358 21.954 22.7499 21.6667 22.7499H4.33333C4.04602 22.7499 3.77047 22.6358 3.5673 22.4326C3.36414 22.2295 3.25 21.9539 3.25 21.6666V10.0901C3.24993 9.92648 3.28694 9.76495 3.35824 9.61766C3.42954 9.47038 3.53328 9.34115 3.66167 9.2397L12.3283 2.40278C12.5196 2.25165 12.7562 2.16943 13 2.16943C13.2438 2.16943 13.4804 2.25165 13.6717 2.40278L22.3383 9.23861C22.4669 9.34018 22.5707 9.46958 22.642 9.61707C22.7133 9.76456 22.7502 9.92629 22.75 10.0901V21.6666V21.6666ZM7.58333 12.9999H9.75C9.75 13.8619 10.0924 14.6886 10.7019 15.298C11.3114 15.9075 12.138 16.2499 13 16.2499C13.862 16.2499 14.6886 15.9075 15.2981 15.298C15.9076 14.6886 16.25 13.8619 16.25 12.9999H18.4167C18.4167 14.4365 17.846 15.8143 16.8302 16.8301C15.8143 17.8459 14.4366 18.4166 13 18.4166C11.5634 18.4166 10.1857 17.8459 9.16984 16.8301C8.15402 15.8143 7.58333 14.4365 7.58333 12.9999V12.9999Z" fill="#EE7623"/>
</g>
<defs>
<clipPath id="clip0_551_1082">
<rect width="26" height="26" fill="white"/>
</clipPath>
</defs>
</svg>
