<svg width="26" height="26" viewBox="0 0 26 26" fill="none" xmlns="http://www.w3.org/2000/svg">
<g clip-path="url(#clip0_551_703)">
<path d="M2.16699 4.32575C2.16897 4.04124 2.2828 3.76894 2.48388 3.56765C2.68496 3.36637 2.95715 3.25227 3.24166 3.25H22.759C23.3527 3.25 23.8337 3.73208 23.8337 4.32575V21.6743C23.8317 21.9588 23.7179 22.2311 23.5168 22.4323C23.3157 22.6336 23.0435 22.7477 22.759 22.75H3.24166C2.95654 22.7497 2.6832 22.6362 2.48169 22.4345C2.28018 22.2328 2.16699 21.9594 2.16699 21.6743V4.32575ZM11.917 5.41667H4.33366V20.5833H11.917V5.41667ZM14.0837 5.41667V20.5833H21.667V5.41667H14.0837ZM15.167 7.58333H20.5837V9.75H15.167V7.58333ZM15.167 10.8333H20.5837V13H15.167V10.8333Z" fill="#EE7623"/>
</g>
<defs>
<clipPath id="clip0_551_703">
<rect width="26" height="26" fill="white"/>
</clipPath>
</defs>
</svg>
