<svg width="26" height="26" viewBox="0 0 26 26" fill="none" xmlns="http://www.w3.org/2000/svg">
<g clip-path="url(#clip0_551_702)">
<path d="M23.8337 7.58333H24.917V18.4167H23.8337V21.6667C23.8337 21.954 23.7195 22.2295 23.5164 22.4327C23.3132 22.6359 23.0376 22.75 22.7503 22.75H3.25033C2.96301 22.75 2.68746 22.6359 2.48429 22.4327C2.28113 22.2295 2.16699 21.954 2.16699 21.6667V4.33333C2.16699 4.04602 2.28113 3.77047 2.48429 3.5673C2.68746 3.36414 2.96301 3.25 3.25033 3.25H22.7503C23.0376 3.25 23.3132 3.36414 23.5164 3.5673C23.7195 3.77047 23.8337 4.04602 23.8337 4.33333V7.58333ZM21.667 18.4167H15.167C13.7304 18.4167 12.3527 17.846 11.3368 16.8302C10.321 15.8143 9.75033 14.4366 9.75033 13C9.75033 11.5634 10.321 10.1857 11.3368 9.16984C12.3527 8.15402 13.7304 7.58333 15.167 7.58333H21.667V5.41667H4.33366V20.5833H21.667V18.4167ZM22.7503 16.25V9.75H15.167C14.305 9.75 13.4784 10.0924 12.8689 10.7019C12.2594 11.3114 11.917 12.138 11.917 13C11.917 13.862 12.2594 14.6886 12.8689 15.2981C13.4784 15.9076 14.305 16.25 15.167 16.25H22.7503ZM15.167 11.9167H18.417V14.0833H15.167V11.9167Z" fill="#EE7623"/>
</g>
<defs>
<clipPath id="clip0_551_702">
<rect width="26" height="26" fill="white"/>
</clipPath>
</defs>
</svg>
